<svg data-v-0dd9719b="" version="1.0" xmlns="http://www.w3.org/2000/svg" xmlns:xlink="http://www.w3.org/1999/xlink" width="100%" height="100%" viewBox="0 0 340.000000 250.000000" preserveAspectRatio="xMidYMid meet" color-interpolation-filters="sRGB" style="margin: auto;"> <rect data-v-0dd9719b="" x="0" y="0" width="100%" height="100%" fill="#fff" fill-opacity="1" class="background"></rect> <rect data-v-0dd9719b="" x="0" y="0" width="100%" height="100%" fill="url(#watermark)" fill-opacity="1" class="watermarklayer"></rect> <g data-v-0dd9719b="" fill="#333" class="icon-text-wrapper icon-svg-group iconsvg" transform="translate(48.399993896484375,94.34396171569824)"><g class="iconsvg-imagesvg" transform="translate(0,0)"><g><rect fill="#333" fill-opacity="0" stroke-width="2" x="0" y="0" width="60" height="61.31207847946045" class="image-rect"></rect> <svg x="0" y="0" width="60" height="61.31207847946045" filtersec="colorsb8536007738" class="image-svg-svg primary" style="overflow: visible;"><svg xmlns="http://www.w3.org/2000/svg" viewBox="0 -0.020691746845841408 97.88308715820312 100.02351379394531"><path d="M55.07 11.54a63.94 63.94 0 0 0-25-8.28A50 50 0 0 1 84.7 83.81a64.15 64.15 0 0 0-29.63-72.27z" fill="#00608c"></path><path d="M48.61 62.6a56.63 56.63 0 0 1-28.37 29.11 51.19 51.19 0 0 1-6.33-5A49.76 49.76 0 0 1 0 64.53a13.23 13.23 0 0 0 6 4.38c9.3 3.27 20.71-5.07 25.47-18.62s1.09-27.19-8.21-30.47c-5-1.77-10.67-.12-15.55 3.89a10.3 10.3 0 0 1 6-1.27C20.24 23.12 24.85 30 24 37.88s-6.76 13.65-13.27 13S-.23 43.27.46 35.42 7.44 20 11.12 16.06A50.06 50.06 0 0 1 27.68 4.23c30.89 9.5 26.56 45.3 20.93 58.37z" fill="#65c5e9"></path><path d="M57.46 27.54a61.23 61.23 0 0 0-5.62-11.18 59.2 59.2 0 0 1 13.22 75.2 61.06 61.06 0 0 1-4.66 6.85 50.24 50.24 0 0 1-23.7.34 61.5 61.5 0 0 0 20.76-71.21z" fill="#39a9e1"></path></svg></svg> <!----></g></g> <g transform="translate(67,9.561038970947266)"><g data-gra="path-name" fill-rule="" class="tp-name iconsvg-namesvg"><g transform="scale(1)"><g><path d="M24.57-8.7L24.57-8.7Q24.57-6.71 23.97-4.83 23.36-2.95 22.12-1.48 20.87 0 18.97 0.89 17.08 1.77 14.48 1.77L14.48 1.77Q11.84 1.77 9.45 0.44 7.06-0.89 5.25-3.54 3.44-6.2 2.35-10.19 1.26-14.18 1.26-19.52L1.26-19.52Q1.26-24.87 2.4-28.65 3.54-32.44 5.42-34.84 7.3-37.25 9.71-38.36 12.11-39.48 14.64-39.48L14.64-39.48Q17.16-39.48 18.92-38.74 20.68-38 21.78-36.87 22.88-35.74 23.38-34.39 23.87-33.03 23.87-31.8L23.87-31.8Q23.87-30.56 23.51-29.64 23.15-28.71 22.56-28.1 21.97-27.5 21.23-27.19 20.49-26.88 19.74-26.88L19.74-26.88Q19.01-26.88 18.3-27.07 17.59-27.26 17.05-27.73 16.52-28.2 16.18-28.96 15.84-29.73 15.84-30.86L15.84-30.86Q15.87-31.42 15.98-31.96L15.98-31.96Q16.09-32.41 16.31-32.97 16.54-33.52 17-34L17-34Q16.6-34.46 16.11-34.7 15.63-34.94 15.17-35.07L15.17-35.07Q14.66-35.21 14.13-35.26L14.13-35.26Q13.43-35.26 12.39-34.32 11.36-33.38 10.39-31.41 9.43-29.43 8.73-26.39 8.03-23.34 8.03-19.15L8.03-19.15Q8.03-14.93 8.73-11.75 9.43-8.57 10.47-6.42 11.52-4.27 12.72-3.18 13.91-2.09 14.9-2.09L14.9-2.09Q16.89-2.09 17.87-3.89 18.85-5.69 18.85-9.45L18.85-9.45Q18.85-10.31 18.77-11.25L18.77-11.25Q18.72-12.03 18.58-13.02 18.45-14.02 18.21-15.01L18.21-15.01Q17.27-14.88 15.87-14.66 14.48-14.45 12.65-14.07L12.65-14.07Q12.94-15.28 13.04-16.56 13.13-17.83 13.13-18.93L13.13-18.93Q13.13-19.47 13.12-19.93 13.11-20.38 13.08-20.71L13.08-20.71Q13.05-21.08 13.02-21.4L13.02-21.4Q13.83-21.24 14.9-21.14L14.9-21.14Q15.82-21.03 17.15-20.96 18.48-20.89 20.2-20.89L20.2-20.89Q21.11-20.89 22.12-20.91 23.12-20.92 24.25-21L24.25-21Q24.09-19.87 24.09-18.69L24.09-18.69Q24.09-17.67 24.17-16.54 24.25-15.42 24.33-14.18 24.41-12.94 24.49-11.59 24.57-10.23 24.57-8.7ZM34.78 1.1L34.78 1.1 27.61 1.64Q28.04-3.17 28.24-7.64 28.44-12.11 28.44-16.6L28.44-16.6Q28.44-19.77 28.35-22.95 28.25-26.13 28.01-29.49L28.01-29.49 34.05-29.81Q34-29.22 33.97-28.65 33.95-28.09 33.95-27.55L33.95-27.55Q34.89-29 36-29.82 37.11-30.64 38.08-31.02L38.08-31.02Q39.18-31.47 40.31-31.58L40.31-31.58Q42.27-31.58 43.67-30.98 45.06-30.37 45.95-29.42 46.84-28.47 47.24-27.3 47.64-26.13 47.64-25.03L47.64-25.03Q47.64-23.9 47.4-22.75 47.16-21.59 46.58-20.67 46-19.74 45.05-19.16 44.1-18.58 42.7-18.58L42.7-18.58Q41.3-18.58 40.5-19.09 39.69-19.6 39.28-20.32 38.86-21.03 38.74-21.79 38.62-22.56 38.62-23.1L38.62-23.1Q38.62-23.47 38.75-23.94 38.89-24.41 39.16-24.9 39.42-25.38 39.83-25.85 40.23-26.32 40.77-26.72L40.77-26.72Q40.61-26.77 40.43-26.8 40.26-26.83 40.1-26.83L40.1-26.83Q38.75-26.83 37.71-25.98 36.66-25.14 35.89-23.63 35.13-22.13 34.63-20.09 34.13-18.05 33.89-15.63L33.89-15.63Q34.03-11.47 34.27-7.39 34.51-3.3 34.78 1.1ZM59.06 1.53L59.06 1.53Q56.4 1.53 54.48 0.38 52.56-0.78 51.31-2.85 50.06-4.91 49.47-7.76 48.88-10.61 48.88-13.96L48.88-13.96Q48.88-17.86 49.58-21.11 50.27-24.36 51.63-26.69 52.99-29.03 54.99-30.33 56.99-31.64 59.59-31.64L59.59-31.64Q62.22-31.64 64.13-30.53 66.04-29.43 67.29-27.45 68.54-25.46 69.13-22.69 69.72-19.93 69.72-16.6L69.72-16.6Q69.72-14.88 69.52-12.86 69.31-10.85 68.84-8.84 68.37-6.82 67.6-4.95 66.82-3.09 65.63-1.64 64.45-0.19 62.83 0.67 61.2 1.53 59.06 1.53ZM63.24-18.58L63.24-18.58Q63.24-20.63 63.06-22.25 62.87-23.87 62.45-25 62.04-26.13 61.41-26.73 60.77-27.34 59.89-27.34L59.89-27.34Q58.92-27.34 58.09-26.32 57.26-25.3 56.62-23.36 55.99-21.43 55.63-18.65 55.27-15.87 55.27-12.38L55.27-12.38Q55.27-10.12 55.48-8.34 55.7-6.55 56.13-5.3 56.56-4.06 57.19-3.4 57.82-2.74 58.68-2.74L58.68-2.74Q59.54-2.74 60.21-3.45 60.88-4.16 61.38-5.37 61.88-6.58 62.24-8.18 62.6-9.78 62.81-11.53 63.03-13.29 63.14-15.12 63.24-16.95 63.24-18.58ZM92.92 0.38L85.94 0.27Q85.99-0.81 86.06-1.79 86.13-2.77 86.21-3.68L86.21-3.68Q85.29-2.07 84.26-1.21 83.23-0.35 82.34 0.08L82.34 0.08Q81.29 0.56 80.27 0.67L80.27 0.67Q78.28 0.67 76.81-0.32 75.33-1.32 74.36-3.14 73.4-4.97 72.93-7.53 72.46-10.1 72.46-13.27L72.46-13.27Q72.46-17.7 72.74-21.86 73.02-26.02 73.66-30.02L73.66-30.02 80.49-29.27Q79.84-26.08 79.51-23.57 79.17-21.05 79.01-19.28L79.01-19.28Q78.82-17.21 78.79-15.68L78.79-15.68Q78.79-13.13 78.96-11.24 79.12-9.35 79.53-8.1 79.95-6.85 80.67-6.23 81.4-5.61 82.53-5.61L82.53-5.61Q83.31-5.75 84.06-6.69L84.06-6.69Q84.38-7.09 84.73-7.72 85.08-8.35 85.43-9.27 85.78-10.18 86.1-11.41 86.42-12.65 86.72-14.29L86.72-14.29Q86.77-15.87 86.77-17.44 86.77-19.01 86.77-20.84L86.77-20.84Q86.77-22.77 86.77-25.06 86.77-27.34 86.72-30.19L86.72-30.19 92.81-30.08Q92.68-28.04 92.6-26.3 92.52-24.57 92.48-23.06 92.44-21.54 92.41-20.2 92.38-18.85 92.38-17.59L92.38-17.59Q92.38-15.66 92.42-13.8 92.46-11.95 92.54-9.87 92.62-7.79 92.72-5.3 92.81-2.82 92.92 0.38L92.92 0.38ZM96.84-29.86L103.82-29.76 103.66-27.55Q104.55-29.03 105.56-29.81 106.56-30.59 107.42-30.91 108.28-31.23 108.86-31.26 109.44-31.29 109.49-31.29L109.49-31.29Q111.48-31.29 112.95-30.37 114.43-29.46 115.4-27.73 116.36-26 116.83-23.51 117.3-21.03 117.3-17.89L117.3-17.89Q117.3-15.58 117.24-13.17 117.17-10.77 116.97-8.39 116.77-6.02 116.43-3.76 116.1-1.5 115.53 0.54L115.53 0.54 109.27-0.21Q109.89-3.41 110.24-6.18 110.59-8.94 110.75-11.01L110.75-11.01Q110.94-13.43 110.97-15.44L110.97-15.44Q110.97-17.99 110.81-19.89 110.64-21.78 110.23-23.03 109.81-24.28 109.09-24.9 108.36-25.51 107.23-25.51L107.23-25.51Q106.48-25.35 105.73-24.44L105.73-24.44Q105.09-23.66 104.36-21.95 103.64-20.25 103.1-17.16L103.1-17.16Q103.02-15.07 103-13.01 102.99-10.96 102.99-8.65L102.99-8.65Q102.99-6.69 102.99-4.43 102.99-2.18 103.04 0.67L103.04 0.67 96.95 0.54Q97.03-2.2 97.07-5.28 97.11-8.35 97.11-12.11L97.11-12.11Q97.11-15.84 97.06-20.2 97-24.55 96.84-29.86L96.84-29.86ZM133.74-40.42L141.5-40.31Q140.88-32.47 140.56-24.75 140.24-17.03 140.24-9.18L140.24-9.18Q140.24-3.95 140.4 1.32L140.4 1.32 134.28 1.42 134.47-3.89Q133.39-1.88 132.26-0.81 131.14 0.27 130.2 0.81L130.2 0.81Q129.09 1.42 128.02 1.53L128.02 1.53Q126.65 1.53 125.25 0.75 123.86-0.03 122.73-1.93 121.6-3.84 120.88-7.02 120.15-10.21 120.15-15.01L120.15-15.01Q120.15-18.18 120.53-20.61 120.9-23.04 121.55-24.84 122.19-26.64 123.07-27.86 123.94-29.08 124.95-29.84 125.95-30.59 127.05-30.91 128.15-31.23 129.23-31.23L129.23-31.23Q129.95-31.18 130.79-30.88L130.79-30.88Q131.48-30.62 132.38-30.09 133.28-29.57 134.22-28.55L134.22-28.55Q134.06-34.51 133.74-40.42L133.74-40.42ZM134.57-10.72L134.57-12.86Q134.57-18.05 134.41-23.26L134.41-23.26Q134.12-23.69 133.78-24.14 133.44-24.6 133.04-24.99 132.64-25.38 132.18-25.62 131.73-25.86 131.22-25.86L131.22-25.86Q130.46-25.86 129.7-25.34 128.93-24.81 128.32-23.54 127.7-22.26 127.31-20.14 126.92-18.02 126.92-14.8L126.92-14.8Q126.92-11.82 127.19-9.86 127.46-7.9 127.91-6.73 128.37-5.56 128.96-5.09 129.55-4.62 130.22-4.62L130.22-4.62Q131.24-4.62 131.98-5.3 132.72-5.99 133.22-6.96 133.71-7.92 134.04-8.96 134.36-9.99 134.57-10.72L134.57-10.72ZM145.13-3.2L145.13-3.2Q145.13-5.26 145.03-7.33 144.94-9.4 144.83-11.48 144.72-13.56 144.63-15.67 144.54-17.78 144.54-19.95L144.54-19.95Q144.54-22.24 144.68-24.59 144.83-26.94 145.26-29.12 145.69-31.31 146.44-33.23 147.19-35.15 148.4-36.58 149.61-38 151.36-38.83 153.1-39.67 155.47-39.67L155.47-39.67Q157.72-39.67 159.39-38.95 161.05-38.24 162.22-37.01 163.39-35.77 164.13-34.11 164.87-32.44 165.28-30.51 165.7-28.57 165.86-26.48 166.02-24.38 166.02-22.32L166.02-22.32Q166.02-21.78 166.01-21.38 165.99-20.97 165.98-20.5 165.97-20.03 165.93-19.39 165.89-18.75 165.83-17.71 165.78-16.68 165.71-15.17 165.64-13.67 165.56-11.47 165.48-9.27 165.38-6.27 165.27-3.28 165.16 0.73L165.16 0.73 157.13 0.43Q157.59-2.63 157.95-5.71 158.31-8.78 158.55-11.44L158.55-11.44Q156.49-11.6 154.71-11.6L154.71-11.6Q153.8-11.6 153-11.57 152.19-11.55 151.57-11.49L151.57-11.49Q151.65-10.1 151.76-8.54 151.87-6.98 152-5.4 152.14-3.81 152.3-2.27 152.46-0.73 152.67 0.67L152.67 0.67 145.07 0.89Q145.13-0.11 145.13-1.14 145.13-2.18 145.13-3.2ZM151.25-17.16L151.25-17.16Q152.06-17.11 152.83-17.11 153.61-17.11 154.37-17.11L154.37-17.11Q157.24-17.11 158.98-17.27L158.98-17.27Q159.15-19.17 159.32-21.11 159.49-23.04 159.49-25.24L159.49-25.24Q159.49-29.89 158.54-32.32 157.59-34.75 155.73-34.75L155.73-34.75Q154.71-34.75 153.85-34.03 153-33.3 152.36-31.78 151.73-30.27 151.37-27.96 151.01-25.65 151.01-22.5L151.01-22.5Q151.01-21.4 151.08-20.16 151.14-18.91 151.25-17.16ZM177.46 0.27L177.46 0.27 170.37 0.99Q170.42-0.81 170.47-2.75 170.51-4.7 170.53-6.63 170.56-8.57 170.59-10.43 170.61-12.3 170.61-13.96L170.61-13.96Q170.64-17.89 170.64-21.67L170.64-21.67Q170.61-25.06 170.56-28.23L170.56-28.23Q170.53-29.57 170.49-30.99 170.45-32.41 170.4-33.78 170.34-35.15 170.28-36.38 170.21-37.6 170.1-38.56L170.1-38.56 176.87-38.89Q176.82-37.22 176.78-35.46 176.74-33.7 176.71-31.97 176.68-30.24 176.67-28.63 176.66-27.02 176.66-25.62L176.66-25.62Q176.66-18.61 176.83-12.26 177-5.91 177.46 0.27Z" transform="translate(-1.2599999904632568, 40.41999816894531)"></path></g> <!----> <!----> <!----> <!----> <!----> <!----> <!----></g></g> <!----></g></g><defs v-gra="od"></defs></svg>